<svg width="30" height="30" viewBox="0 0 30 30" fill="none" xmlns="http://www.w3.org/2000/svg">
<path d="M26.6667 6.66667H3.33335C2.89133 6.66667 2.4674 6.84227 2.15484 7.15483C1.84228 7.46739 1.66669 7.89131 1.66669 8.33334V21.6667C1.66669 22.1087 1.84228 22.5326 2.15484 22.8452C2.4674 23.1577 2.89133 23.3333 3.33335 23.3333H26.6667C27.1087 23.3333 27.5326 23.1577 27.8452 22.8452C28.1578 22.5326 28.3334 22.1087 28.3334 21.6667V8.33334C28.3334 7.89131 28.1578 7.46739 27.8452 7.15483C27.5326 6.84227 27.1087 6.66667 26.6667 6.66667V6.66667ZM26.6667 21.6667H3.33335V8.33334H26.6667V21.6667Z" fill="#FEF6E4"/>
<path d="M5.83331 10.8333H7.49998V12.5H5.83331V10.8333Z" fill="#FEF6E4"/>
<path d="M9.16669 10.8333H10.8334V12.5H9.16669V10.8333Z" fill="#FEF6E4"/>
<path d="M12.5 10.8333H14.1667V12.5H12.5V10.8333Z" fill="#FEF6E4"/>
<path d="M15.8333 10.8333H17.5V12.5H15.8333V10.8333Z" fill="#FEF6E4"/>
<path d="M19.1667 10.8333H20.8334V12.5H19.1667V10.8333Z" fill="#FEF6E4"/>
<path d="M22.5 10.8333H24.1667V12.5H22.5V10.8333Z" fill="#FEF6E4"/>
<path d="M5.83331 14.1667H7.49998V15.8333H5.83331V14.1667Z" fill="#FEF6E4"/>
<path d="M9.16669 14.1667H10.8334V15.8333H9.16669V14.1667Z" fill="#FEF6E4"/>
<path d="M12.5 14.1667H14.1667V15.8333H12.5V14.1667Z" fill="#FEF6E4"/>
<path d="M15.8333 14.1667H17.5V15.8333H15.8333V14.1667Z" fill="#FEF6E4"/>
<path d="M19.1667 14.1667H20.8334V15.8333H19.1667V14.1667Z" fill="#FEF6E4"/>
<path d="M22.5 14.1667H24.1667V15.8333H22.5V14.1667Z" fill="#FEF6E4"/>
<path d="M22.5 18.3333H24.1167V20H22.5V18.3333Z" fill="#FEF6E4"/>
<path d="M5.83331 18.3333H7.49998V20H5.83331V18.3333Z" fill="#FEF6E4"/>
<path d="M9.27502 18.3333H20.7334V20H9.27502V18.3333Z" fill="#FEF6E4"/>
</svg>
